<svg width="161" height="160" viewBox="0 0 161 160" fill="none" xmlns="http://www.w3.org/2000/svg">
<circle cx="80.5" cy="80" r="70" fill="#1794D4"/>
<path d="M90.5 35H80.5V45H90.5V35Z" fill="white"/>
<path d="M50.5 50H60.5V60H50.5V50Z" fill="white"/>
<path d="M30.5077 84.707C31.3622 99.2135 40.0013 120 70.4999 120C104.5 120 119.667 95.0001 123 82.5001C127.167 82.5001 136.5 80.0001 140.5 70.0001C138 67.5 128 67.5 123 70.0001C123 66.0001 120.5 57.5 115.5 55C112.167 58.3333 107 67 113 75C110.5 79.9999 103.834 80 100.5 80H35.2145C32.5671 80 30.3521 82.0642 30.5077 84.707Z" fill="white"/>
<path d="M45.5 65H35.5V75H45.5V65Z" fill="white"/>
<path d="M50.5 65H60.5V75H50.5V65Z" fill="white"/>
<path d="M75.5 65H65.5V75H75.5V65Z" fill="white"/>
<path d="M80.5 65H90.5V75H80.5V65Z" fill="white"/>
<path d="M105.5 65H95.5V75H105.5V65Z" fill="white"/>
<path d="M75.5 50H65.5V60H75.5V50Z" fill="white"/>
<path d="M80.5 50H90.5V60H80.5V50Z" fill="white"/>
</svg>
