<svg width="160" height="160" viewBox="0 0 160 160" fill="none" xmlns="http://www.w3.org/2000/svg">
<path fill-rule="evenodd" clip-rule="evenodd" d="M80 80C80 68.9543 88.9543 60 100 60C111.046 60 120 68.9543 120 80C120 91.0457 111.046 100 100 100C88.9543 100 80 91.0457 80 80Z" fill="#1ABCFE"/>
<path fill-rule="evenodd" clip-rule="evenodd" d="M40 120C40 108.954 48.9543 100 60 100H80V120C80 131.046 71.0457 140 60 140C48.9543 140 40 131.046 40 120Z" fill="#0ACF83"/>
<path fill-rule="evenodd" clip-rule="evenodd" d="M80 20V60H100C111.046 60 120 51.0457 120 40C120 28.9543 111.046 20 100 20H80Z" fill="#FF7262"/>
<path fill-rule="evenodd" clip-rule="evenodd" d="M40 40C40 51.0457 48.9543 60 60 60H80V20H60C48.9543 20 40 28.9543 40 40Z" fill="#F24E1E"/>
<path fill-rule="evenodd" clip-rule="evenodd" d="M40 80C40 91.0457 48.9543 100 60 100H80V60H60C48.9543 60 40 68.9543 40 80Z" fill="#A259FF"/>
</svg>
