<svg width="160" height="160" viewBox="0 0 160 160" fill="none" xmlns="http://www.w3.org/2000/svg">
<path d="M93.3944 79.8795C93.3944 72.7074 87.3979 66.8927 80 66.8927C72.6028 66.8927 66.6056 72.7074 66.6056 79.8795C66.6056 87.0523 72.6028 92.867 80 92.867C87.3979 92.867 93.3944 87.0523 93.3944 79.8795Z" fill="#53C1DE"/>
<path fill-rule="evenodd" clip-rule="evenodd" d="M123.502 55.7685C126.331 44.6239 129.886 23.9574 117.352 16.9508C104.877 9.97474 88.6422 23.3421 80.0697 31.3659C71.5221 23.4221 54.8317 10.1118 42.3081 17.1407C29.8375 24.1401 33.6832 44.464 36.5745 55.6784C24.9416 58.882 5 65.782 5 79.8795C5 93.9371 24.9208 101.444 36.4849 104.644C33.5829 115.921 29.9298 135.955 42.4164 142.938C54.9864 149.966 71.6252 136.973 80.2768 128.861C88.9043 136.932 104.983 150.01 117.461 143.007C129.978 135.982 126.718 115.592 123.826 104.312C135.036 101.105 155 93.7616 155 79.8795C155 65.9174 134.952 58.9614 123.502 55.7685ZM122.081 98.3348C120.183 92.5079 117.62 86.3115 114.485 79.9104C117.477 73.6606 119.94 67.544 121.786 61.7544C130.179 64.1138 148.593 69.5065 148.593 79.8795C148.593 90.3498 130.923 95.7935 122.081 98.3348ZM114.25 137.63C104.94 142.855 91.1107 130.348 84.7392 124.404C88.9659 119.922 93.19 114.711 97.3124 108.925C104.564 108.301 111.415 107.281 117.628 105.889C119.663 113.867 123.601 132.381 114.25 137.63ZM45.6181 137.555C36.3071 132.35 40.5629 114.473 42.6978 106.167C48.8417 107.484 55.6428 108.432 62.9119 109.004C67.0616 114.666 71.4078 119.871 75.7879 124.428C70.3763 129.504 54.9726 142.785 45.6181 137.555ZM11.4074 79.8795C11.4074 69.3699 29.7103 64.0166 38.2952 61.663C40.1726 67.5826 42.6348 73.772 45.6061 80.0308C42.5963 86.3829 40.0989 92.6707 38.2043 98.6599C30.0185 96.3881 11.4074 90.3957 11.4074 79.8795ZM45.5185 22.5177C54.8675 17.2708 69.3736 30.0491 75.5794 35.8006C71.222 40.3377 66.9156 45.503 62.8017 51.1323C55.7471 51.7663 48.9937 52.7846 42.7855 54.1484C40.4563 45.1036 36.1796 27.7589 45.5185 22.5177ZM101.896 57.8855C106.683 58.4712 111.268 59.25 115.574 60.2032C114.281 64.2202 112.67 68.4207 110.773 72.7267C108.022 67.6664 105.069 62.708 101.896 57.8855ZM80.0717 40.2405C83.0271 43.3448 85.9872 46.8115 88.8989 50.5723C82.9926 50.3017 77.0765 50.3005 71.1702 50.5685C74.0845 46.8424 77.0698 43.3809 80.0717 40.2405ZM49.2825 72.7222C47.4164 68.431 45.8199 64.2119 44.5161 60.1376C48.7959 59.2088 53.3599 58.4499 58.115 57.8739C54.9331 62.6858 51.9855 67.6424 49.2825 72.7222ZM58.2517 102.329C53.3393 101.797 48.7063 101.077 44.4278 100.174C45.7522 96.0273 47.3839 91.7175 49.2898 87.3343C52.0302 92.4664 55.0224 97.4712 58.2517 102.329ZM80.2489 119.957C77.2118 116.78 74.1827 113.265 71.224 109.485C77.1642 109.712 83.1157 109.712 89.0549 109.455C86.1339 113.304 83.1845 116.824 80.2489 119.957ZM110.834 87.1109C112.838 91.5418 114.529 95.8285 115.871 99.9047C111.521 100.867 106.826 101.642 101.878 102.217C105.075 97.3036 108.074 92.2681 110.834 87.1109ZM93.7363 102.97C84.6507 103.6 75.5078 103.593 66.419 103.022C61.2544 95.7073 56.6572 88.0148 52.6887 80.0288C56.6378 72.0594 61.2018 64.3822 66.342 57.079C75.4377 56.4123 84.5891 56.4107 93.6845 57.0828C98.7803 64.3856 103.338 72.0429 107.378 79.9407C103.385 87.9062 98.7977 95.599 93.7363 102.97ZM114.152 22.333C123.503 27.5627 119.34 46.1363 117.298 54.2128C111.075 52.8206 104.317 51.7843 97.2414 51.1407C93.1196 45.4502 88.8491 40.2759 84.5619 35.7974C90.8476 29.922 104.89 17.1544 114.152 22.333Z" fill="#53C1DE"/>
</svg>
