<svg width="1000" height="1000" viewBox="0 0 1000 1000" fill="none" xmlns="http://www.w3.org/2000/svg">
<mask id="mask0_466_77" style="mask-type:luminance" maskUnits="userSpaceOnUse" x="50" y="225" width="900" height="540">
<path d="M50 225H950V765H50V225Z" fill="white"/>
</mask>
<g mask="url(#mask0_466_77)">
<path fill-rule="evenodd" clip-rule="evenodd" d="M500 225C380 225 305 285 275 405C320 345 372.5 322.5 432.5 337.5C466.733 346.05 491.2 370.9 518.283 398.383C562.4 443.167 613.467 495 725 495C845 495 920 435 950 315C905 375 852.5 397.5 792.5 382.5C758.267 373.95 733.8 349.1 706.717 321.617C662.6 276.833 611.533 225 500 225ZM275 495C155 495 80 555 50 675C95 615 147.5 592.5 207.5 607.5C241.733 616.067 266.2 640.9 293.283 668.383C337.4 713.167 388.467 765 500 765C620 765 695 705 725 585C680 645 627.5 667.5 567.5 652.5C533.267 643.95 508.8 619.1 481.717 591.617C437.6 546.833 386.533 495 275 495Z" fill="#38BDF8"/>
</g>
</svg>
